<svg version="1.1" id="Layer_1" xmlns="http://www.w3.org/2000/svg" xmlns:xlink="http://www.w3.org/1999/xlink" x="0px" y="0px"
	 width="100%" viewBox="0 0 1460 675" enable-background="new 0 0 1460 675" xml:space="preserve">
<path fill="#FFFFFF" opacity="1.000000" stroke="none" 
	d="
M962.000000,676.000000 
	C641.370728,676.000000 321.241516,676.000000 1.056134,676.000000 
	C1.056134,451.063721 1.056134,226.127457 1.056134,1.095582 
	C487.546051,1.095582 974.092102,1.095582 1460.819092,1.095582 
	C1460.819092,225.999878 1460.819092,450.999939 1460.819092,676.000000 
	C1294.793823,676.000000 1128.646973,676.000000 962.000000,676.000000 
M849.500000,30.000000 
	C586.086426,30.000000 322.672821,30.000000 59.253929,30.000000 
	C59.253929,240.927521 59.253929,451.321045 59.253929,661.778320 
	C502.221863,661.778320 944.935852,661.778320 1387.627930,661.778320 
	C1389.300781,644.791260 1388.102417,38.911995 1386.362793,30.000000 
	C1207.767334,30.000000 1029.133667,30.000000 849.500000,30.000000 
z"/>
<path fill="#000000" opacity="1.000000" stroke="none" 
	d="
M850.000000,30.000000 
	C1029.133667,30.000000 1207.767334,30.000000 1386.362793,30.000000 
	C1388.102417,38.911995 1389.300781,644.791260 1387.627930,661.778320 
	C944.935852,661.778320 502.221863,661.778320 59.253929,661.778320 
	C59.253929,451.321045 59.253929,240.927521 59.253929,30.000000 
	C322.672821,30.000000 586.086426,30.000000 850.000000,30.000000 
z"/>
</svg>